<svg id="Layer_1" data-name="Layer 1" xmlns="http://www.w3.org/2000/svg" viewBox="0 0 509.4 165.43"><defs><style>.cls-1{fill:#006cff;}.cls-2{fill:#282d32;}</style></defs><path class="cls-1" d="M259.12,710.35c1.16,0,1.65,0,2.14,0,1.76.18,3.53.14,5.29.26a15.91,15.91,0,0,1,3.5.39,3.85,3.85,0,0,0,.58.08,63.46,63.46,0,0,1,10.66,2.1,84.35,84.35,0,0,1,25,11.51,72.75,72.75,0,0,1,7.44,5.76c1.6,1.45,3.28,2.8,4.76,4.38a90.64,90.64,0,0,1,7.95,9.44c1.37,1.92,2.72,3.84,3.94,5.86A82.4,82.4,0,0,1,339,769.74a91.54,91.54,0,0,1,2.54,11.78c.27,1.74.41,3.5.59,5.26.06.58.05,1.18.06,1.76,0,1.77,0,3.54,0,5.3a65.39,65.39,0,0,1-.78,10.55A87.31,87.31,0,0,1,336.93,822a72.85,72.85,0,0,1-4.07,9.12,82.76,82.76,0,0,1-8.8,13.55,78.59,78.59,0,0,1-10.38,10.81c-1.64,1.41-3.29,2.79-5,4.09a76.65,76.65,0,0,1-6.6,4.42,80.59,80.59,0,0,1-15.66,7.39,69,69,0,0,1-8.21,2.3,103.32,103.32,0,0,1-11.63,1.79c-3.43.33-6.85.25-10.28.24-1.08,0-2.15-.17-3.23-.27a87.46,87.46,0,0,1-12.76-2.08,81.44,81.44,0,0,1-26.9-12.22c-1.13-.78-2.2-1.64-3.29-2.47l-1.63-1.27c-.53-.43-1.06-.86-1.58-1.31-.81-.71-1.58-1.48-2.42-2.15a37.87,37.87,0,0,1-4.82-4.74c-1.48-1.7-3-3.39-4.37-5.16a78.46,78.46,0,0,1-4.76-6.72,83.09,83.09,0,0,1-7.68-15.53,84.48,84.48,0,0,1-4.17-15.91c-.41-2.52-.57-5.06-1-7.58a15.7,15.7,0,0,1-.09-2.06c0-2.55,0-5.1,0-7.65a7.59,7.59,0,0,1,0-1.17c.33-2.13.42-4.3.78-6.42.25-1.55.45-3.1.75-4.65a87.91,87.91,0,0,1,4.28-14.66,75.32,75.32,0,0,1,6-12.09,72.74,72.74,0,0,1,5.9-8.43,77.44,77.44,0,0,1,7.39-8,95.74,95.74,0,0,1,7.63-6.46,77.93,77.93,0,0,1,9.65-6.19c2-1.07,4-2.07,6.05-3a73.69,73.69,0,0,1,10.75-4c2-.57,4-1.12,6-1.53a38,38,0,0,1,5.21-.87,2.87,2.87,0,0,0,.58-.07,27.21,27.21,0,0,1,5.55-.55Zm1.05,13.1h-5.59a16.63,16.63,0,0,0-4.66.46,4.25,4.25,0,0,1-.87.13c-1.67.12-3.27.66-4.91.91a71.5,71.5,0,0,0-23.33,10.18,58.49,58.49,0,0,0-5.9,4.38,77.2,77.2,0,0,0-7.18,7,65.78,65.78,0,0,0-5.82,7.38,69.09,69.09,0,0,0-7.06,13.53c-.63,1.65-1.13,3.34-1.65,5a60.58,60.58,0,0,0-2.15,10c-.06.49-.15,1-.24,1.45a18.76,18.76,0,0,0-.29,3.51c0,3,0,5.89,0,8.83A27.12,27.12,0,0,0,191,803a23.59,23.59,0,0,0,.68,4.35,72.46,72.46,0,0,0,2,7.39,71.12,71.12,0,0,0,11.31,21.17c1.27,1.62,2.65,3.14,4,4.67a63.62,63.62,0,0,0,12.55,10.6c1.64,1.07,3.33,2.08,5,3a66.86,66.86,0,0,0,21.23,7.55c1.84.32,3.69.54,5.53.8a34.63,34.63,0,0,0,5,.34c1.37,0,2.75,0,4.12,0a14.14,14.14,0,0,0,2.06-.09c2.42-.38,4.86-.52,7.28-1a69.41,69.41,0,0,0,8.56-2.1,71.69,71.69,0,0,0,26-15,67.83,67.83,0,0,0,8.37-9.07,63.16,63.16,0,0,0,6.38-9.86c.84-1.67,1.77-3.29,2.48-5a72.9,72.9,0,0,0,3.67-10.85c.26-1.15.53-2.29.77-3.44a32.81,32.81,0,0,0,.8-4.94,17.75,17.75,0,0,1,.25-2,15.45,15.45,0,0,0,.2-2.63q0-4.43,0-8.83a17,17,0,0,0-.34-4.09,6.59,6.59,0,0,1-.16-1.17,41.9,41.9,0,0,0-1.19-7,63.11,63.11,0,0,0-5.7-15.09,60.2,60.2,0,0,0-7.07-10.81c-1.6-2.25-3.6-4.14-5.4-6.21a78,78,0,0,0-8.51-7.22c-1.43-1.05-2.92-2-4.42-2.92A70.91,70.91,0,0,0,279,725.88a54.71,54.71,0,0,0-8.61-1.87,23,23,0,0,0-6.13-.56Z" transform="translate(-177.62 -710.33)"/><path class="cls-2" d="M405.79,820.37q0,8.39,0,16.77c0,.78,0,1.57-.06,2.35a1.06,1.06,0,0,1-1,.91l-.29,0h-6.18a3.78,3.78,0,0,1-.57-.1c-.17,0-.52-.46-.57-.63a6.88,6.88,0,0,1-.12-1.75q0-8.24,0-16.48c0-1.27,0-2.55,0-3.82a.44.44,0,0,0-.25-.46.36.36,0,0,0-.5.15c-.61,1.12-1.21,2.24-1.79,3.37l-6.95,13.62a5.29,5.29,0,0,1-.44.77,1.1,1.1,0,0,1-.69.5,8,8,0,0,1-2.92,0,1.35,1.35,0,0,1-.92-.68,14.55,14.55,0,0,1-.68-1.3c-2.19-4.39-4.37-8.77-6.58-13.15a19.22,19.22,0,0,0-1.71-3.07.44.44,0,0,0-.22-.16c-.25,0-.38.06-.39.31,0,.68-.07,1.37-.07,2.05q0,9,0,17.95c0,.68,0,1.37-.07,2.05a.91.91,0,0,1-.77.76c-.1,0-.19,0-.29.06H365a2.58,2.58,0,0,1-.29,0,1.15,1.15,0,0,1-1-.93c0-.58-.08-1.17-.08-1.76q0-17.51,0-35c0-.68.08-1.36.13-2.05,0-.27.53-.74.8-.76a11.48,11.48,0,0,1,1.17-.07c2.94.1,5.88.21,8.8.54a1.11,1.11,0,0,1,.92.63c.18.35.35.71.51,1.06q4.17,8.93,8.34,17.85a6.57,6.57,0,0,0,.46.75c.14.23.29.23.46,0a3.49,3.49,0,0,0,.63-1q2.37-5.06,4.73-10.12c1.19-2.58,2.37-5.17,3.56-7.75a6.86,6.86,0,0,1,.58-1,1.07,1.07,0,0,1,.73-.44c1-.12,1.94-.32,2.91-.35,2.16,0,4.32,0,6.47,0a1,1,0,0,1,.93,1c0,.29,0,.58,0,.88,0,.78,0,1.57,0,2.35v16.18Z" transform="translate(-177.62 -710.33)"/><path class="cls-2" d="M405.79,763.25q0,8.82,0,17.64c0,.68-.06,1.37-.1,2.05a1.07,1.07,0,0,1-.62.56c-.09,0-.19.08-.28.08l-6.76,0a1.08,1.08,0,0,1-.56-.14,1,1,0,0,1-.37-.44,1.55,1.55,0,0,1-.09-.57c0-1,0-2,0-2.94q0-8.68,0-17.35c0-.49-.06-1-.11-1.46,0,0-.18-.08-.27-.09a.5.5,0,0,0-.48.25c-.46.86-.93,1.72-1.37,2.6l-7.26,14.43a3.21,3.21,0,0,1-.31.5,1,1,0,0,1-.7.48c-.88,0-1.76,0-2.64.05a1.62,1.62,0,0,1-1.63-1q-3.49-7-7.05-13.88c-.45-.87-.93-1.73-1.4-2.58a.58.58,0,0,0-.44-.32c-.25,0-.35.11-.36.36,0,.49,0,1,0,1.47q0,8.09,0,16.17c0,1.17,0,2.35-.05,3.52a.89.89,0,0,1-.72.8,2.8,2.8,0,0,1-.28.06l-7.06,0c-.09,0-.19,0-.29,0a1,1,0,0,1-.79-.75,11.52,11.52,0,0,1-.09-1.17c0-1.57,0-3.14,0-4.71,0-3.52,0-7.05,0-10.58q0-10.14.05-20.28a12.31,12.31,0,0,1,.12-2.35,1.07,1.07,0,0,1,.8-.75,5.65,5.65,0,0,1,.58,0,38.44,38.44,0,0,1,5.57.3c1,.16,1.95.13,2.93.2a4.27,4.27,0,0,1,.87.14,1.83,1.83,0,0,1,.48.32.68.68,0,0,1,.14.25q2.43,5.19,4.84,10.39l4.23,9.05c.08.17.21.33.31.5s.51.34.67.12a11.77,11.77,0,0,0,1.07-2.09c2.06-4.44,4.09-8.89,6.14-13.34.74-1.6,1.5-3.19,2.24-4.79a.83.83,0,0,1,.68-.49c1.07-.13,2.15-.18,3.2-.41a3.74,3.74,0,0,1,.88-.07l5.29,0a1,1,0,0,1,1,.86c0,.29,0,.59.06.88,0,.59,0,1.17,0,1.76Z" transform="translate(-177.62 -710.33)"/><path class="cls-2" d="M443.74,820.33c0-5.68,0-11.37,0-17.05,0-.69,0-1.37.08-2.06a1,1,0,0,1,.73-.81,2.8,2.8,0,0,1,.28-.06c2.75,0,5.49,0,8.23,0a1.31,1.31,0,0,1,1.17.75q5.89,10.18,11.8,20.34a13.6,13.6,0,0,0,1.59,2.46.41.41,0,0,0,.24.11c.25,0,.36-.09.36-.35,0-.88,0-1.76,0-2.64,0-6,0-12,0-17.94,0-.68.05-1.36.07-2.05a1,1,0,0,1,.56-.6c.1,0,.2,0,.29,0q3.53-.18,7.05,0a1,1,0,0,1,.95.93c0,.19,0,.39,0,.58s0,.59,0,.89v34.11c0,.88,0,1.76-.06,2.64a1.2,1.2,0,0,1-.73.84c-.1,0-.19,0-.29,0l-7.94,0a1.48,1.48,0,0,1-1.23-.68c-.17-.24-.34-.48-.49-.74q-4.77-8.26-9.56-16.54a57.51,57.51,0,0,0-3.19-5.26.39.39,0,0,0-.26-.11.37.37,0,0,0-.41.32,5.73,5.73,0,0,0-.07.58c0,.59,0,1.18,0,1.76v17.94a8.82,8.82,0,0,1-.11,2c-.05.17-.41.58-.58.6a11.54,11.54,0,0,1-1.17.1c-1.57,0-3.14,0-4.71,0l-1.17,0c-.2,0-.39,0-.59-.05a1.17,1.17,0,0,1-1-.95c0-.78-.07-1.57-.07-2.35q0-7.65.08-15.29v-1.47Z" transform="translate(-177.62 -710.33)"/><path class="cls-2" d="M534.65,841.17c-.59,0-1.18,0-1.77,0a15.87,15.87,0,0,1-5.46-.93,17,17,0,0,1-7.13-4.49,25.21,25.21,0,0,1-2.29-2.67,19.14,19.14,0,0,1-3.3-7.15,17.87,17.87,0,0,1-.59-4.94c0-.68,0-1.37,0-2a11.31,11.31,0,0,1,.07-1.17,21.86,21.86,0,0,1,4-10.58,18,18,0,0,1,3.94-3.91,19.56,19.56,0,0,1,5.73-2.89,20.06,20.06,0,0,1,5.2-.86c1.08,0,2.15,0,3.23,0a19.31,19.31,0,0,1,10.92,3.8,20.05,20.05,0,0,1,7.39,11,30.62,30.62,0,0,1,.77,6.68c0,.3,0,.59,0,.88a23.58,23.58,0,0,1-3.19,10,19.38,19.38,0,0,1-9.47,8c-1.27.52-2.63.75-3.94,1.15a4.44,4.44,0,0,1-1.16.13c-1,0-2,0-2.93,0Zm.55-8.13a7.37,7.37,0,0,0,3.19-.63,8.26,8.26,0,0,0,.82-.33,10.73,10.73,0,0,0,4.45-3.7,14.32,14.32,0,0,0,2.46-7.71,12.41,12.41,0,0,0-.73-4.9,13.91,13.91,0,0,0-3.08-4.94,8.7,8.7,0,0,0-2.6-1.87,19.4,19.4,0,0,0-1.92-.73,10.51,10.51,0,0,0-6.06-.05,11.15,11.15,0,0,0-6.37,4.87,11,11,0,0,0-1.5,3.48,15.45,15.45,0,0,0-.6,3.76,16.52,16.52,0,0,0,.34,2.9,12.75,12.75,0,0,0,1.94,4.87,10.83,10.83,0,0,0,3.05,3.13A11.16,11.16,0,0,0,535.2,833Z" transform="translate(-177.62 -710.33)"/><path class="cls-2" d="M560.21,820V803.27c0-.68,0-1.37.06-2a1,1,0,0,1,.74-.8,11.57,11.57,0,0,1,1.17-.11c5.09,0,10.18,0,15.28,0a14,14,0,0,1,6.47,1.67,11,11,0,0,1,4.42,4.19,14,14,0,0,1,1.44,3.21,7.27,7.27,0,0,1,.27,1.14c.14,1.17.26,2.33.35,3.5a5.7,5.7,0,0,1-.06,1.17c-.06.49-.14,1-.21,1.46a11.1,11.1,0,0,1-2.65,5.79,10.65,10.65,0,0,1-3.22,2.52L582.19,826a.31.31,0,0,0-.13.5c.2.33.38.68.61,1q3.39,4.8,6.79,9.59a23,23,0,0,1,1.6,2.46.64.64,0,0,1-.5.85c-2.74.09-5.48.07-8.22,0a1.45,1.45,0,0,1-1.21-.72c-.16-.24-.34-.47-.51-.71-.89-1.3-1.78-2.58-2.66-3.88-1.64-2.44-3.26-4.89-4.9-7.33a8.58,8.58,0,0,0-.53-.7,1.24,1.24,0,0,0-.74-.42,4.48,4.48,0,0,0-1.75,0,.62.62,0,0,0-.41.38,3,3,0,0,0-.16,1.15q0,4.26,0,8.52a15.93,15.93,0,0,1-.1,2.93,1.18,1.18,0,0,1-.55.63c-.2,0-.38.09-.58.11s-.59,0-.88,0c-1.76,0-3.53,0-5.29,0a9.15,9.15,0,0,1-1.16-.13,1,1,0,0,1-.57-.61,11.65,11.65,0,0,1-.11-1.16q0-3.67,0-7.35V820Zm9.32-6.46h0c0,1.37,0,2.73,0,4.09,0,.72.38,1.16,1,1.17,2,0,4.09.06,6.13.07a4.22,4.22,0,0,0,2.9-1.2,4,4,0,0,0,1.2-2,7.26,7.26,0,0,0,0-3.76,4.45,4.45,0,0,0-.95-1.78,5.65,5.65,0,0,0-2.69-1.68,2.28,2.28,0,0,0-.57-.1c-2,0-4.09-.11-6.13,0a.9.9,0,0,0-.77.75C569.61,810.64,569.57,812.1,569.53,813.56Z" transform="translate(-177.62 -710.33)"/><path class="cls-2" d="M591.74,763.55q0-8.52,0-17a11.57,11.57,0,0,1,.1-2.35c0-.19.39-.57.58-.59a11.57,11.57,0,0,1,1.17-.11q6.18,0,12.35-.07c1,0,2,.12,2.94.07a12.85,12.85,0,0,1,4.85,1,13.09,13.09,0,0,1,4,2.4,5.91,5.91,0,0,1,.84.82,13,13,0,0,1,2.67,5.19,14.52,14.52,0,0,1,.4,5.53,17.1,17.1,0,0,1-.79,3.73,10.25,10.25,0,0,1-5.19,5.73,15.24,15.24,0,0,0-2.12,1,.34.34,0,0,0-.15.49,8.75,8.75,0,0,0,1.09,1.74c2.1,2.95,4.22,5.89,6.32,8.84.68,1,1.32,1.95,2,2.93a.43.43,0,0,1-.27.66c-.59,0-1.17.06-1.76.07l-5.88,0c-.39,0-.78,0-1.17-.06a1.19,1.19,0,0,1-.76-.4,5.85,5.85,0,0,1-.53-.7l-8.09-11.91a1.53,1.53,0,0,0-1.22-.71,11.81,11.81,0,0,0-1.46,0c-.09,0-.18.09-.27.12a.55.55,0,0,0-.37.41,3.27,3.27,0,0,0-.14,1.16c0,2.94,0,5.88,0,8.82a10.06,10.06,0,0,1-.14,2.63c-.05.17-.24.3-.38.43a.5.5,0,0,1-.27.07c-2.55.09-5.09.14-7.64,0a.89.89,0,0,1-.57-.59c0-.29-.08-.58-.09-.88,0-.78,0-1.56,0-2.35V763.55Zm9.12-6.7v3.22q0,.58.06,1.17a1,1,0,0,0,.91,1c1.85,0,3.7,0,5.55,0a6.27,6.27,0,0,0,2.53-.67,3.62,3.62,0,0,0,1.55-1.3,6.5,6.5,0,0,0,.76-4.78,2.31,2.31,0,0,0-.1-.28,5.31,5.31,0,0,0-4.49-3.67,14.56,14.56,0,0,0-1.75-.13c-1.07,0-2.14,0-3.21,0-.29,0-.58.05-.87.08a1.09,1.09,0,0,0-.9,1c0,.39,0,.78,0,1.17Z" transform="translate(-177.62 -710.33)"/><path class="cls-2" d="M411.46,758V746.16c0-.39,0-.78,0-1.18,0-1.39.37-1.61,1.52-1.6,2.06,0,4.12,0,6.18.08a5.7,5.7,0,0,1,.58.06.93.93,0,0,1,.81.71c0,.49.08,1,.08,1.46q0,10.88,0,21.76c0,.88,0,1.76,0,2.64a4.89,4.89,0,0,0,.61,2.25,12.33,12.33,0,0,0,.77,1.25,5.59,5.59,0,0,0,3.61,2.34,12.67,12.67,0,0,0,2,.26,7.43,7.43,0,0,0,4-.86,6.29,6.29,0,0,0,3.13-4.4A12.42,12.42,0,0,0,435,768V756.84q0-5.3,0-10.59a10.08,10.08,0,0,1,.12-2,1.14,1.14,0,0,1,.58-.6,2.29,2.29,0,0,1,.28-.09c2.44-.07,4.89-.11,7.34,0a.89.89,0,0,1,.8.71,2.5,2.5,0,0,1,.05.29c0,.29,0,.58,0,.88l0,20c0,1.86.05,3.72-.13,5.58a16.26,16.26,0,0,1-1.57,5.63,13.43,13.43,0,0,1-7.4,6.79,8.55,8.55,0,0,1-2.81.8,4.78,4.78,0,0,0-1.14.29,5.41,5.41,0,0,1-1.45.22l-2.35,0a18.2,18.2,0,0,1-6.87-1.38,13.47,13.47,0,0,1-7.08-6.34,15,15,0,0,1-1.72-6.17C411.4,766.64,411.51,762.43,411.46,758Z" transform="translate(-177.62 -710.33)"/><path class="cls-2" d="M641.51,784.84c-.79,0-1.38,0-2-.08a16.89,16.89,0,0,1-7.26-2.11,11.88,11.88,0,0,1-3.73-3.28,14.2,14.2,0,0,1-2.77-6.4.65.65,0,0,1,.48-.64,10.27,10.27,0,0,1,1.42-.38c1.26-.19,2.52-.35,3.77-.61a10.51,10.51,0,0,1,2.63-.21.82.82,0,0,1,.66.48,10.36,10.36,0,0,0,.67,1.94,5.86,5.86,0,0,0,2.14,2.36,6.73,6.73,0,0,0,3.31,1.1,11.49,11.49,0,0,0,1.76,0,5.88,5.88,0,0,0,4.26-2.32,3.35,3.35,0,0,0,.61-2.5,4.14,4.14,0,0,0-2.11-3,9.3,9.3,0,0,0-1-.52,17.55,17.55,0,0,0-3.07-1,49.68,49.68,0,0,1-5.62-1.67,16.27,16.27,0,0,1-4.63-2.52,11.48,11.48,0,0,1-3.53-4.62,7.82,7.82,0,0,1-.71-3.13c0-1.08,0-2.16,0-3.23a10,10,0,0,1,2-5.73,6.22,6.22,0,0,1,.57-.68,12.5,12.5,0,0,1,5.24-3.14,14.17,14.17,0,0,1,4-.72,5.27,5.27,0,0,0,.88-.1l.58-.08a19.22,19.22,0,0,1,7.5,1.14,12.37,12.37,0,0,1,6.66,6.71,16.62,16.62,0,0,1,1.07,3.65.92.92,0,0,1-.61.89,68.42,68.42,0,0,1-7,1A1.15,1.15,0,0,1,647,755a6.72,6.72,0,0,1-.31-.81,9.68,9.68,0,0,0-.68-1.63,4.71,4.71,0,0,0-3.45-2.48,9.53,9.53,0,0,0-3.8,0,4.56,4.56,0,0,0-1.63.66,3.65,3.65,0,0,0-1.67,2.65,7.62,7.62,0,0,0,0,1.17,2.35,2.35,0,0,0,.36,1.11A4.4,4.4,0,0,0,637,757a9.23,9.23,0,0,0,2.3,1.27,29.13,29.13,0,0,0,4,1.14c1.53.36,3,.72,4.54,1.22a16.76,16.76,0,0,1,4.71,2.35,10.74,10.74,0,0,1,4.12,8.69,5.8,5.8,0,0,0,0,.59,12.26,12.26,0,0,1-1.93,6.68,10.2,10.2,0,0,1-2.83,3,12.32,12.32,0,0,1-3.64,1.87,29.44,29.44,0,0,1-3.41.88A26.85,26.85,0,0,1,641.51,784.84Z" transform="translate(-177.62 -710.33)"/><path class="cls-2" d="M560.21,763.52V746.17a10.08,10.08,0,0,1,.11-2,1.26,1.26,0,0,1,.62-.56,8.22,8.22,0,0,1,2-.14h10.88c2.84,0,5.69,0,8.53,0,.58,0,1.17.08,1.75.13a.88.88,0,0,1,.57.6,65.87,65.87,0,0,1,0,6.74,1,1,0,0,1-.58.6c-.29,0-.58.08-.88.09h-2.64c-3,0-6.08,0-9.12,0a7.93,7.93,0,0,0-1.45.15c-.16,0-.3.23-.42.38a.46.46,0,0,0-.08.27,44.22,44.22,0,0,0,0,5.87,1,1,0,0,0,.53.64,3.86,3.86,0,0,0,.57.12c.69,0,1.37,0,2.06,0h7c.79,0,1.57,0,2.36,0s1.29.43,1.3,1.23c0,1.86,0,3.72,0,5.59a4,4,0,0,1-.08.58,1,1,0,0,1-.79.75c-.59,0-1.17.08-1.76.09-2.84,0-5.68,0-8.53,0-.68,0-1.36.06-2,.1a.88.88,0,0,0-.7.8,55.69,55.69,0,0,0,0,6.46,1,1,0,0,0,.55.62,2.87,2.87,0,0,0,.57.11c.79,0,1.57,0,2.36,0h9.4c.59,0,1.18,0,1.76.07a1.12,1.12,0,0,1,.92,1c.12,2,.09,4.11,0,6.16a.9.9,0,0,1-.74.79l-.58.06h-22a8.58,8.58,0,0,1-.87-.1,1,1,0,0,1-.59-.59c0-.68-.08-1.37-.08-2q0-8.67,0-17.35Z" transform="translate(-177.62 -710.33)"/><path class="cls-2" d="M661.94,763.46V746.71c0-.79,0-1.57.06-2.35a1,1,0,0,1,1-.9c.29,0,.59,0,.88,0,6.56,0,13.13,0,19.69,0a15.72,15.72,0,0,1,2.05.16c.16,0,.31.23.43.37a.55.55,0,0,1,.08.29,51.41,51.41,0,0,1,0,6.45,1,1,0,0,1-1,.87c-.29,0-.58,0-.88,0h-2c-3,0-6.08,0-9.11,0-.59,0-1.18.07-1.76.11a.88.88,0,0,0-.57.6,3.68,3.68,0,0,0-.08.58c0,1.76-.09,3.52.05,5.28a.94.94,0,0,0,.75.78c.29,0,.58.09.87.1H682c.58,0,1.17.06,1.75.11a.93.93,0,0,1,.73.81c0,1.27.07,2.54.07,3.81,0,.88,0,1.76-.08,2.64a1,1,0,0,1-.72.82c-.2,0-.39.08-.58.08l-2.35,0h-8.23a4.49,4.49,0,0,0-1.46.16c-.16.06-.27.26-.38.42a.51.51,0,0,0-.07.28,53.39,53.39,0,0,0,0,6.45.94.94,0,0,0,.79.74c.2,0,.39.06.59.06l1.76,0H685c1.58,0,2,.29,2,1.81,0,1.86.11,3.72-.1,5.58a1.1,1.1,0,0,1-.6.58,3.75,3.75,0,0,1-.57.09c-.68,0-1.37,0-2.06,0H667.8l-4.41,0c-.19,0-.38,0-.58-.06a.87.87,0,0,1-.79-.72c0-.79-.08-1.57-.08-2.35,0-5.68,0-11.37,0-17Z" transform="translate(-177.62 -710.33)"/><path class="cls-2" d="M412.78,820.44V803.1a8.82,8.82,0,0,1,.11-2.05,1,1,0,0,1,.57-.61,5.67,5.67,0,0,1,.57-.1c.79,0,1.57,0,2.35,0h17.34c.88,0,1.77,0,2.65.08a1,1,0,0,1,.9,1c0,.29,0,.59,0,.88,0,.59,0,1.17-.06,1.76,0,1.18-.09,2.35-.14,3.52a.89.89,0,0,1-.76.75c-.49,0-1,.08-1.47.08-2.64,0-5.29,0-7.93,0a43.27,43.27,0,0,0-4.41.08.9.9,0,0,0-.71.8,48.69,48.69,0,0,0,.06,6.16.72.72,0,0,0,.34.45,1.11,1.11,0,0,0,.56.17c.78,0,1.56.05,2.35.05h8.52c.49,0,1,.06,1.46.09a1,1,0,0,1,.74.8,55.68,55.68,0,0,1,0,6.46,1,1,0,0,1-.54.63,3.7,3.7,0,0,1-.58.1c-.78,0-1.56,0-2.35,0h-8.52c-.49,0-1,.06-1.46.1-.17,0-.53.45-.54.63s-.07.39-.07.59c0,2.05-.09,4.11,0,6.16a1,1,0,0,0,.54.62c.2,0,.39.07.59.08h1.47l11.16,0c.49,0,1,.06,1.47.09a.91.91,0,0,1,.61.55c0,.1.05.19.06.29a45.37,45.37,0,0,1,0,6.17,1.07,1.07,0,0,1-.19.54.87.87,0,0,1-.46.35,14.55,14.55,0,0,1-1.75.11H414.76c-.39,0-.78-.06-1.18-.08a1.2,1.2,0,0,1-.74-.82c0-.3,0-.59,0-.88,0-.79,0-1.57,0-2.36V820.44Z" transform="translate(-177.62 -710.33)"/><path class="cls-2" d="M537,783.6c-1.28,0-2.55,0-3.82,0s-1.28-.17-1.66-1.28c-1.4-4.17-2.76-8.36-4.14-12.54q-4-12.13-8-24.27c-.12-.37-.23-.74-.34-1.12a.69.69,0,0,1,.53-.86c.19,0,.39-.06.58-.06l7.35,0a5.73,5.73,0,0,1,.58.07,1,1,0,0,1,.65.51l1.32,4.51q3.06,10.57,6.14,21.14a5.41,5.41,0,0,0,.63,1.63s.15,0,.23,0a.39.39,0,0,0,.26-.11,1.52,1.52,0,0,0,.31-.48c.78-2.53,1.56-5,2.31-7.58q2.51-8.44,5-16.9c.22-.75.47-1.49.75-2.23a1.06,1.06,0,0,1,.92-.62,3.77,3.77,0,0,1,.58,0h6.46c.39,0,.78.08,1.17.12a.63.63,0,0,1,.41.65c-.35,1.12-.69,2.24-1.06,3.35L547,769q-2,6-4,12a11.17,11.17,0,0,1-.85,2.19.86.86,0,0,1-.46.33,3.19,3.19,0,0,1-.87.11H537Z" transform="translate(-177.62 -710.33)"/><path class="cls-2" d="M493,824.31V810.48a5.51,5.51,0,0,0-.12-1.46,1,1,0,0,0-.62-.55c-.49,0-1-.1-1.47-.1-2.35,0-4.71,0-7.06,0a11.4,11.4,0,0,1-1.16-.12,1,1,0,0,1-.57-.61,53.55,53.55,0,0,1,0-6.46.92.92,0,0,1,.77-.76c.2,0,.39-.07.58-.07q.88,0,1.77,0h24.13c.88,0,1.76.05,2.64.08a1.12,1.12,0,0,1,.74.81q0,3.09,0,6.18c0,.1-.05.19-.06.29a1,1,0,0,1-.57.59c-.49,0-1,.09-1.47.1h-5.59c-.59,0-1.18,0-1.76.06a1.07,1.07,0,0,0-.92,1c0,.3,0,.59-.06.88,0,.89,0,1.77,0,2.65v23.55c0,.78,0,1.56,0,2.35,0,.19,0,.39-.05.59a1.1,1.1,0,0,1-.92,1c-.89,0-1.77.05-2.65.05-1.37,0-2.75,0-4.12,0a2.42,2.42,0,0,1-.85-.16.82.82,0,0,1-.41-.39,3.37,3.37,0,0,1-.17-1.45q0-7,0-14.12Z" transform="translate(-177.62 -710.33)"/><path class="cls-2" d="M490.57,767.76q0,6.75,0,13.51a12.9,12.9,0,0,1-.12,1.76c0,.15-.22.32-.38.42a1.19,1.19,0,0,1-.56.14l-6.75,0a3.68,3.68,0,0,1-.58-.06.89.89,0,0,1-.73-.78c0-2.45.07-4.9.08-7.34q0-10.58,0-21.15v-.88c0-1.72-.22-2-2.09-2s-3.92.08-5.87.1c-.59,0-1.17,0-1.76,0a1,1,0,0,1-.59-.59c0-.1-.08-.19-.08-.28-.06-2.15-.12-4.31,0-6.46a.89.89,0,0,1,.77-.73c.1,0,.2,0,.29,0l.59,0H497.2a14.37,14.37,0,0,1,2.93.15,1.15,1.15,0,0,1,.56.61,1.53,1.53,0,0,1,.07.29c.1,2.05.11,4.11,0,6.16a1.11,1.11,0,0,1-.2.55.78.78,0,0,1-.45.34,14.67,14.67,0,0,1-1.75.1l-6.46,0a2.48,2.48,0,0,0-.86.16.69.69,0,0,0-.36.44,8.89,8.89,0,0,0-.11,1.46c0,2.55,0,5.09,0,7.64Z" transform="translate(-177.62 -710.33)"/><path class="cls-2" d="M449.92,763.32q0-8.82,0-17.65a4.86,4.86,0,0,1,.16-1.74.89.89,0,0,1,.43-.38,1.34,1.34,0,0,1,.57-.1h6.76a2.89,2.89,0,0,1,.29,0,1,1,0,0,1,.81.71,12.23,12.23,0,0,1,.1,2.34v24.7a26,26,0,0,0,.1,3.53,1.29,1.29,0,0,0,.58.62,3.82,3.82,0,0,0,.56.14c.59,0,1.17,0,1.76,0h9.41c.59,0,1.18,0,1.76,0,.87,0,1.33.43,1.33,1.22,0,2,0,3.92,0,5.88a1,1,0,0,1-1,.91l-.59,0h-.88l-20.59,0c-.29,0-.58,0-.87-.07A1,1,0,0,1,450,783a3.68,3.68,0,0,1-.08-.58c0-.68,0-1.37,0-2.06v-17Z" transform="translate(-177.62 -710.33)"/><path class="cls-2" d="M514.8,763.52c0,5.69,0,11.38,0,17.07,0,.78-.06,1.56-.09,2.35a.91.91,0,0,1-.58.58,2.93,2.93,0,0,1-.29.05l-7.35,0a1,1,0,0,1-.79-.76c0-.58-.08-1.17-.08-1.76,0-3.23,0-6.47,0-9.71q0-12.06,0-24.13c0-1,.05-2,.08-2.94a1,1,0,0,1,.75-.78,59,59,0,0,1,7.64,0,1,1,0,0,1,.61.56c0,.2.07.39.08.59,0,.78,0,1.56,0,2.35v16.48Z" transform="translate(-177.62 -710.33)"/><path class="cls-1" d="M281.55,839.19v-.05l5.58.07a3.5,3.5,0,0,0,1.16-.12.69.69,0,0,0,.39-.7c-.21-.65-.38-1.31-.62-1.95a130.12,130.12,0,0,1-4.6-15.79c-1.37-5.72-2.45-11.51-3.31-17.33-.6-4.07-1.15-8.15-1.52-12.25,0-.39,0-.78-.05-1.17a1,1,0,0,1,.07-.28.61.61,0,0,1,.14-.25.47.47,0,0,1,.54,0,43.13,43.13,0,0,0,8.53,5.69,47.73,47.73,0,0,0,14.58,4.34c.59.07,1.17.13,1.75.23a25.64,25.64,0,0,0,4.1.31.44.44,0,0,0,.44-.3.56.56,0,0,0,0-.56q-3.37-4.08-6.77-8.14c-1.39-1.65-2.84-3.25-4.17-4.94-1.7-2.15-3.58-4.16-5.28-6.31-.73-.93-1.47-1.84-2.23-2.73l-4.6-5.36c-.32-.37-.65-.73-.94-1.13-1.41-1.88-3-3.61-4.48-5.44s-3.06-3.57-4.57-5.38l-6.22-7.44c-2.71-3.23-5.4-6.47-8.1-9.71l-.19-.22L261,742c-.82-.92-1.23-1.11-2.13-.13-.4.44-.8.87-1.17,1.32-2.64,3.29-5.46,6.42-8.14,9.67-2.37,2.87-4.83,5.67-7.25,8.5-1.65,1.94-3.23,3.94-4.9,5.87-2,2.29-3.85,4.7-5.9,6.94a11,11,0,0,0-.74.92,20.43,20.43,0,0,1-1.69,2,14.16,14.16,0,0,0-1.33,1.57,25.32,25.32,0,0,1-1.87,2.27c-.45.51-.9,1-1.34,1.56l-5.1,6.08L214.84,794c-.76.9-1.51,1.81-2.25,2.72-.5.61-1,1.22-1.46,1.84-.12.15-.21.33-.32.49a.56.56,0,0,0,0,.56.46.46,0,0,0,.45.29c2,0,3.9-.32,5.86-.48a41,41,0,0,0,4.92-.82,39,39,0,0,0,8.36-2.73,36,36,0,0,0,8.52-5.16c.23-.19.46-.37.7-.54s.33-.21.49-.32.71-.16.84,0a1.13,1.13,0,0,1,.28.48,6.14,6.14,0,0,1,0,2c-.26,1.55-.35,3.12-.54,4.67-.81,6.62-1.83,13.2-3.21,19.73-.41,1.91-.84,3.83-1.34,5.72-1.35,5.12-2.88,10.18-4.71,15.15a2.79,2.79,0,0,0-.21.85.6.6,0,0,0,.26.48,2.78,2.78,0,0,0,1.15.17c3.92.11,7.85,0,11.76.13a4,4,0,0,0,.59-.07,1.34,1.34,0,0,0,.66-.54c.4-1.21.64-2.45.92-3.7.53-2.38,1.13-4.76,1.65-7.15.63-3,1.37-5.91,1.9-8.9.21-1.15.54-2.28.79-3.43a25,25,0,0,1,.73-3.44c.35-2.23.86-4.42,1.29-6.63.21-1.06.45-2.11.68-3.16a.88.88,0,0,1,.12-.26.42.42,0,0,1,.49-.18.64.64,0,0,1,.41.39,37,37,0,0,0,4,6.12c.24.31.51.6.77.89a1,1,0,0,0,1.31,0c.12-.16.26-.3.37-.46,1.27-1.86,2.45-3.78,3.58-5.73.25-.42.49-.85.78-1.25a1,1,0,0,1,.48-.29c.18-.07.32.06.4.29a11.37,11.37,0,0,1,.5,1.38c.25,1.05.44,2.11.65,3.16.46,2.31.9,4.62,1.38,6.92.69,3.26,1.46,6.5,2.09,9.77.57,3,1.26,5.94,1.91,8.9.45,2,.93,4,1.4,6a1.71,1.71,0,0,0,.22.54,1.09,1.09,0,0,0,.9.66c.49,0,1,.06,1.47.07Z" transform="translate(-177.62 -710.33)"/><path class="cls-1" d="M281.55,839.19h-4.7c-.49,0-1,0-1.47-.07a1.09,1.09,0,0,1-.9-.66,1.71,1.71,0,0,1-.22-.54c-.47-2-.95-4-1.4-6-.65-3-1.34-5.92-1.91-8.9-.63-3.27-1.4-6.51-2.09-9.77-.48-2.3-.92-4.61-1.38-6.92-.21-1.05-.4-2.11-.65-3.16a11.37,11.37,0,0,0-.5-1.38c-.08-.23-.22-.36-.4-.29a1,1,0,0,0-.48.29c-.29.4-.53.83-.78,1.25-1.13,2-2.31,3.87-3.58,5.73-.11.16-.25.3-.37.46a1,1,0,0,1-1.31,0c-.26-.29-.53-.58-.77-.89a37,37,0,0,1-4-6.12.64.64,0,0,0-.41-.39.42.42,0,0,0-.49.18.88.88,0,0,0-.12.26c-.23,1.05-.47,2.1-.68,3.16-.43,2.21-.94,4.4-1.29,6.63a25,25,0,0,0-.73,3.44c-.25,1.15-.58,2.28-.79,3.43-.53,3-1.27,5.93-1.9,8.9-.52,2.39-1.12,4.77-1.65,7.15-.28,1.25-.52,2.49-.92,3.7a1.34,1.34,0,0,1-.66.54,4,4,0,0,1-.59.07c-3.91-.16-7.84,0-11.76-.13a2.78,2.78,0,0,1-1.15-.17.6.6,0,0,1-.26-.48,2.79,2.79,0,0,1,.21-.85c1.83-5,3.36-10,4.71-15.15.5-1.89.93-3.81,1.34-5.72,1.38-6.53,2.4-13.11,3.21-19.73.19-1.55.28-3.12.54-4.67a6.14,6.14,0,0,0,0-2,1.13,1.13,0,0,0-.28-.48c-.13-.15-.64-.12-.84,0s-.33.2-.49.32-.47.35-.7.54a36,36,0,0,1-8.52,5.16,39,39,0,0,1-8.36,2.73,41,41,0,0,1-4.92.82c-2,.16-3.89.49-5.86.48a.46.46,0,0,1-.45-.29.56.56,0,0,1,0-.56c.11-.16.2-.34.32-.49.48-.62,1-1.23,1.46-1.84.74-.91,1.49-1.82,2.25-2.72l4.56-5.38,5.1-6.08c.44-.53.89-1,1.34-1.56a25.32,25.32,0,0,0,1.87-2.27,14.16,14.16,0,0,1,1.33-1.57,20.43,20.43,0,0,0,1.69-2,11,11,0,0,1,.74-.92c2.05-2.24,3.91-4.65,5.9-6.94,1.67-1.93,3.25-3.93,4.9-5.87,2.42-2.83,4.88-5.63,7.25-8.5,2.68-3.25,5.5-6.38,8.14-9.67.37-.45.77-.88,1.17-1.32.9-1,1.31-.79,2.13.13l.2.22.19.22c2.7,3.24,5.39,6.48,8.1,9.71l6.22,7.44c1.51,1.81,3.09,3.55,4.57,5.38s3.07,3.56,4.48,5.44c.29.4.62.76.94,1.13l4.6,5.36c.76.89,1.5,1.8,2.23,2.73,1.7,2.15,3.58,4.16,5.28,6.31,1.33,1.69,2.78,3.29,4.17,4.94q3.39,4.07,6.77,8.14a.56.56,0,0,1,0,.56.44.44,0,0,1-.44.3,25.64,25.64,0,0,1-4.1-.31c-.58-.1-1.16-.16-1.75-.23A47.73,47.73,0,0,1,287.87,795a43.13,43.13,0,0,1-8.53-5.69.47.47,0,0,0-.54,0,.61.61,0,0,0-.14.25,1,1,0,0,0-.07.28c0,.39,0,.78.05,1.17.37,4.1.92,8.18,1.52,12.25.86,5.82,1.94,11.61,3.31,17.33a130.12,130.12,0,0,0,4.6,15.79c.24.64.41,1.3.62,1.95a.69.69,0,0,1-.39.7,3.5,3.5,0,0,1-1.16.12l-5.58-.07Z" transform="translate(-177.62 -710.33)"/></svg>